<svg width="20" height="20" viewBox="0 0 20 20" fill="none" xmlns="http://www.w3.org/2000/svg">
<path d="M19.7249 18.3124L16.0149 14.6324C17.455 12.8368 18.1524 10.5577 17.9637 8.26367C17.775 5.96967 16.7146 3.83515 15.0004 2.29901C13.2863 0.762871 11.0487 -0.0581246 8.74784 0.00483581C6.44696 0.0677962 4.25764 1.00993 2.63006 2.63751C1.00248 4.26509 0.0603499 6.4544 -0.00261048 8.75529C-0.0655709 11.0562 0.755425 13.2937 2.29156 15.0079C3.8277 16.722 5.96222 17.7825 8.25622 17.9712C10.5502 18.1599 12.8293 17.4625 14.6249 16.0224L18.3049 19.7024C18.3979 19.7961 18.5085 19.8705 18.6303 19.9213C18.7522 19.972 18.8829 19.9982 19.0149 19.9982C19.1469 19.9982 19.2776 19.972 19.3995 19.9213C19.5214 19.8705 19.632 19.7961 19.7249 19.7024C19.9052 19.5159 20.0059 19.2667 20.0059 19.0074C20.0059 18.748 19.9052 18.4988 19.7249 18.3124V18.3124ZM9.01492 16.0224C7.63045 16.0224 6.27707 15.6118 5.12593 14.8427C3.97478 14.0735 3.07758 12.9802 2.54776 11.7011C2.01795 10.4221 1.87933 9.0146 2.14942 7.65673C2.41952 6.29887 3.0862 5.05159 4.06517 4.07262C5.04414 3.09365 6.29142 2.42696 7.64929 2.15687C9.00715 1.88677 10.4146 2.0254 11.6937 2.55521C12.9728 3.08502 14.066 3.98223 14.8352 5.13337C15.6044 6.28452 16.0149 7.6379 16.0149 9.02237C16.0149 10.8789 15.2774 12.6594 13.9647 13.9721C12.6519 15.2849 10.8714 16.0224 9.01492 16.0224V16.0224Z" fill="#4181EB"/>
</svg>
